<?xml version="1.0" encoding="utf-8"?>
<!-- Generator: Adobe Illustrator 24.2.1, SVG Export Plug-In . SVG Version: 6.00 Build 0)  -->
<svg version="1.1" xmlns="http://www.w3.org/2000/svg" xmlns:xlink="http://www.w3.org/1999/xlink" x="0px" y="0px"
	 viewBox="0 0 150 100" style="enable-background:new 0 0 150 100;" xml:space="preserve">
<style type="text/css">
	.st0{fill:none;stroke:#FF6B6B;stroke-width:2;}
	.st1{fill:#F9F9F9;}
	.st2{fill:none;}
	.st3{fill:none;stroke:#FF6B6B;}
	.st4{fill:#FF6B6B;}
	.st5{display:none;}
	.st6{display:inline;fill:#FF6B6B;}
	.st7{display:inline;fill:none;stroke:#FF6B6B;stroke-width:2;}
	.st8{display:inline;fill:none;stroke:#FF6B6B;stroke-width:6;}
	.st9{font-family:'Arial-BoldMT';}
	.st10{font-size:10.8967px;}
	.st11{display:inline;fill:none;stroke:#FF6B6B;}
	.st12{display:inline;fill:none;stroke:#FF6B6B;stroke-width:5;}
	.st13{display:inline;fill:#FF6B6B;stroke:#FF6B6B;stroke-width:2;}
	.st14{display:inline;fill:#FFFFFF;}
	.st15{display:inline;fill:none;stroke:#FFFFFF;stroke-width:2;}
	.st16{display:inline;fill:none;stroke:#FFFFFF;stroke-width:0.75;}
	.st17{display:inline;fill:#F9F9F9;}
	.st18{display:inline;fill:none;stroke:#F9F9F9;stroke-miterlimit:10;}
	.st19{font-family:'Arial-Black';}
	.st20{font-size:17.9695px;}
	.st21{display:inline;fill:#FFFFFF;stroke:#FF6B6B;stroke-width:4;stroke-miterlimit:10;}
	.st22{display:inline;}
	.st23{display:inline;fill:none;stroke:#FF6B6B;stroke-width:2;stroke-miterlimit:10;}
	.st24{display:inline;opacity:0.61;fill:#FFFFFF;}
	.st25{display:inline;fill:#F9F9F9;stroke:#FF6B6B;}
</style>
<g id="Layer_2">
</g>
<g id="ACORDEON">
	<desc>Created with Sketch.</desc>
	<polyline class="st0" points="114.1,61.1 117.5,64.4 120.9,61.1 	"/>
	<rect x="27.4" y="17.3" class="st1" width="97.5" height="39"/>
	<line class="st2" x1="74.7" y1="69.3" x2="74.7" y2="69.3"/>
	<line class="st3" x1="25.6" y1="17.3" x2="126.4" y2="17.3"/>
	<line class="st3" x1="25.6" y1="56.3" x2="126.4" y2="56.3"/>
	<line class="st3" x1="25.6" y1="69.3" x2="126.4" y2="69.3"/>
	<line class="st3" x1="25.6" y1="82.3" x2="126.4" y2="82.3"/>
	<polyline class="st0" points="114.1,74.1 117.5,77.4 120.9,74.1 	"/>
	<polyline class="st0" points="120.9,24.4 117.5,21.1 114.1,24.4 	"/>
	<line class="st0" x1="31" y1="62.9" x2="92.9" y2="62.9"/>
	<line class="st0" x1="31" y1="75.9" x2="92.9" y2="75.9"/>
	<line class="st0" x1="31" y1="22.9" x2="92.9" y2="22.9"/>
	<path class="st3" d="M93.6,28.5"/>
	<path class="st3" d="M42.1,28.5"/>
	<g>
		<polygon class="st4" points="40.6,33.2 41.5,35 40.2,33.5 		"/>
	</g>
	<g>
		<polygon class="st4" points="42.6,32.1 41.5,35 42.1,32 		"/>
	</g>
	<line class="st3" x1="45.6" y1="33.9" x2="84.2" y2="33.9"/>
	<g>
		<polygon class="st4" points="40.6,39.2 41.5,41 40.2,39.5 		"/>
	</g>
	<g>
		<polygon class="st4" points="42.6,38.1 41.5,41 42.1,38 		"/>
	</g>
	<line class="st3" x1="45.6" y1="39.9" x2="84.2" y2="39.9"/>
	<g>
		<polygon class="st4" points="40.6,45.2 41.5,47 40.2,45.5 		"/>
	</g>
	<g>
		<polygon class="st4" points="42.6,44.1 41.5,47 42.1,44 		"/>
	</g>
	<line class="st3" x1="45.6" y1="45.9" x2="84.2" y2="45.9"/>
</g>
<g id="Layer_3" class="st5">
	<polygon class="st6" points="75.8,19.3 122.8,36.8 28.8,36.8 	"/>
	<line class="st7" x1="24.1" y1="78" x2="127.4" y2="78"/>
	<line class="st7" x1="28.8" y1="74.4" x2="122.8" y2="74.4"/>
	<line class="st7" x1="33.4" y1="70.7" x2="118.1" y2="70.7"/>
	<line class="st7" x1="33.4" y1="39.9" x2="118.1" y2="39.9"/>
	<line class="st8" x1="45.6" y1="45" x2="45.6" y2="65.1"/>
	<line class="st8" x1="105.9" y1="45" x2="105.9" y2="65.1"/>
	<text transform="matrix(1.0221 0 0 1 60.1724 58.9434)" class="st6 st9 st10">BANK</text>
</g>
<g id="Button" class="st5">
	<rect x="24.6" y="38.3" class="st11" width="100.8" height="19.2"/>
	<polygon class="st6" points="43.1,42.5 38.4,47.2 33.7,42.5 	"/>
	<polygon class="st6" points="37.8,47.8 33.1,52.5 33.1,43 	"/>
	<polygon class="st6" points="43.1,53 33.7,53 38.4,48.3 	"/>
	<polygon class="st6" points="43.6,52.5 38.9,47.8 43.6,43 	"/>
	<line class="st12" x1="55.5" y1="47.9" x2="113.2" y2="47.9"/>
</g>
<g id="call_to_action" class="st5">
	<rect x="12.6" y="41.3" class="st13" width="40.1" height="12.7"/>
	<circle class="st14" cx="19" cy="47.5" r="3.5"/>
	<line class="st15" x1="26.4" y1="45.7" x2="49.2" y2="45.7"/>
	<line class="st16" x1="26.4" y1="48.7" x2="43.3" y2="48.7"/>
	<line class="st16" x1="26.4" y1="50" x2="37.4" y2="50"/>
	<rect x="55.4" y="41.3" class="st13" width="40.1" height="12.7"/>
	<circle class="st14" cx="61.9" cy="47.5" r="3.5"/>
	<line class="st15" x1="69.2" y1="45.7" x2="92.1" y2="45.7"/>
	<line class="st16" x1="69.2" y1="48.7" x2="86.2" y2="48.7"/>
	<line class="st16" x1="69.2" y1="50" x2="80.2" y2="50"/>
	<rect x="98.3" y="41.3" class="st13" width="40.1" height="12.7"/>
	<circle class="st14" cx="104.8" cy="47.5" r="3.5"/>
	<line class="st15" x1="112.1" y1="45.7" x2="135" y2="45.7"/>
	<line class="st16" x1="112.1" y1="48.7" x2="129" y2="48.7"/>
	<line class="st16" x1="112.1" y1="50" x2="123.1" y2="50"/>
</g>
<g id="data_facten" class="st5">
	<rect x="132.4" y="131.9" class="st17" width="110.1" height="40.6"/>
	<rect x="57.5" y="32.9" class="st11" width="23.3" height="10.9"/>
	<rect x="81" y="32.9" class="st11" width="23.3" height="10.9"/>
	<rect x="104.6" y="32.9" class="st11" width="23.3" height="10.9"/>
	<rect x="57.5" y="44.1" class="st11" width="23.3" height="10.9"/>
	<rect x="81" y="44.1" class="st11" width="23.3" height="10.9"/>
	<rect x="104.6" y="44.1" class="st11" width="23.3" height="10.9"/>
	<rect x="57.5" y="55.4" class="st11" width="23.3" height="10.9"/>
	<rect x="81" y="55.4" class="st11" width="23.3" height="10.9"/>
	<rect x="104.6" y="55.4" class="st11" width="23.3" height="10.9"/>
	<line class="st7" x1="48.4" y1="38.3" x2="23.7" y2="38.3"/>
	<line class="st11" x1="48.4" y1="43.4" x2="33" y2="43.4"/>
	<circle class="st6" cx="69.1" cy="38.3" r="0.6"/>
	<circle class="st6" cx="92.7" cy="38.3" r="0.6"/>
	<circle class="st6" cx="116.2" cy="38.3" r="0.6"/>
	<circle class="st6" cx="69.1" cy="49.6" r="0.6"/>
	<circle class="st6" cx="92.7" cy="49.6" r="0.6"/>
	<circle class="st6" cx="116.2" cy="49.6" r="0.6"/>
	<circle class="st6" cx="69.1" cy="60.8" r="0.6"/>
	<circle class="st6" cx="92.7" cy="60.8" r="0.6"/>
	<circle class="st6" cx="116.2" cy="60.8" r="0.6"/>
	<line class="st18" x1="16.9" y1="21.8" x2="136.1" y2="21.8"/>
	<line class="st18" x1="16.9" y1="78.1" x2="136.1" y2="78.1"/>
</g>
<g id="contact" class="st5">
	<circle class="st6" cx="37.9" cy="49.9" r="17.9"/>
	<line class="st8" x1="69.2" y1="37.3" x2="132.9" y2="37.3"/>
	<line class="st7" x1="69.2" y1="50.8" x2="132.9" y2="50.8"/>
	<line class="st7" x1="69.2" y1="57.5" x2="132.9" y2="57.5"/>
	<line class="st7" x1="69.2" y1="64.2" x2="104.9" y2="64.2"/>
	<line class="st18" x1="16.9" y1="22" x2="139.9" y2="22"/>
	<line class="st18" x1="16.9" y1="78" x2="138.9" y2="78"/>
</g>
<g id="news_teaser" class="st5">
	<path class="st11" d="M108.7,65.4V27.3V22c0-0.9-0.7-1.6-1.6-1.6H40.3c-0.9,0-1.6,0.7-1.6,1.6v50.2c0,3.3,2.7,6,6,6h64"/>
	<path class="st11" d="M106.8,78.3h1.9h0c2.4,0,4.3-1.9,4.3-4.3V29.9c0-1.4-1.1-2.5-2.5-2.5h-1.7"/>
	<text transform="matrix(1.0308 0 0 1 42.8159 38.8262)" class="st6 st19 st20">NEWS</text>
	<line class="st11" x1="44.3" y1="43.2" x2="103.5" y2="43.2"/>
	<line class="st11" x1="44.3" y1="48" x2="103.5" y2="48"/>
	<rect x="44.3" y="52" class="st6" width="19.5" height="11.7"/>
	<line class="st11" x1="70.8" y1="52.7" x2="103.5" y2="52.7"/>
	<line class="st11" x1="70.8" y1="57.5" x2="103.5" y2="57.5"/>
	<line class="st11" x1="70.8" y1="63.1" x2="103.5" y2="63.1"/>
	<line class="st11" x1="44.3" y1="68.8" x2="103.5" y2="68.8"/>
</g>
<g id="calculator" class="st5">
	<rect x="197.7" y="128.3" class="st17" width="112.9" height="38.4"/>
	<line class="st11" x1="18.5" y1="46.9" x2="128.9" y2="46.9"/>
	<circle class="st6" cx="45.1" cy="46.9" r="3"/>
	<line class="st11" x1="18.5" y1="57.5" x2="128.9" y2="57.5"/>
	<circle class="st6" cx="78" cy="57.5" r="3"/>
	<line class="st12" x1="128.9" y1="35.3" x2="104.4" y2="35.3"/>
	<line class="st18" x1="11" y1="21.8" x2="139.1" y2="21.8"/>
	<line class="st18" x1="11" y1="78" x2="139.1" y2="78"/>
</g>
<g id="Search_emploee" class="st5">
	<line class="st21" x1="118.4" y1="77.6" x2="98.8" y2="65"/>
	<g class="st22">
		<path class="st4" d="M65.2,65.3c1.2-3.1,3.4-5.5,0.9-8.5c-0.8-1-0.5-2.5,0.8-3.3c1.6-1,3.3-1,4.9-0.1c1.4,0.8,1.5,2.5,0.7,3.5
			c-2.5,3.2,0.1,5.3,1,7.9c1.2-2.9,1.1-5.9,1.7-8.8c0.7-3.8,0.9-4.2,4.1-2.5c2.3,1.2,5,1.8,7.4,2.8c2.7,1.1,4.5,3.1,5,6.1
			c0.5,3.5-0.3,5.2-3.5,6.6c-12.2,5.2-24.5,5.2-36.8,0.4c-2.6-1-4.4-2.7-4.3-6c0.1-3.3,1.3-5.7,4.4-6.9c3.2-1.2,6.4-2.4,9.5-3.7
			c1.5-0.6,1.9,0,2.1,1.3c0.3,2.5,0.7,5.1,1,7.6C64.2,62.8,64.4,63.9,65.2,65.3z"/>
		<path class="st4" d="M81.2,29.4c-0.1,1.4-0.2,2.7,1.3,3.7c1.3,1,0.3,5.5-1.4,6.6c-1.3,0.8-1.8,1.7-2.2,3.1c-0.3,1.1-0.9,2.1-1.6,3
			c-5.7,7.2-10.9,7.4-16.5-1.1c-1.3-2-2.3-4.2-3.9-6.2c-1.3-1.6-2.1-3.9,0-6.1c1.5-1.6,0.1-3.8,0.7-5.7c0.1-0.4-0.4-1,0.1-1.5
			c3.1-2.9,5.7-6.5,10.4-6.8c4-0.2,7.4,1.8,10.6,3.7C81.2,23.7,81.1,26.7,81.2,29.4z"/>
	</g>
	<circle class="st23" cx="87.5" cy="57.9" r="12.9"/>
	<circle class="st24" cx="87.5" cy="57.9" r="12.9"/>
</g>
<g id="teaser" class="st5">
	<rect x="209.1" y="57" class="st17" width="104.6" height="39.6"/>
	<line class="st7" x1="25.1" y1="33.8" x2="52.1" y2="33.8"/>
	<line class="st11" x1="32.8" y1="37.7" x2="52.1" y2="37.7"/>
	<line class="st11" x1="63" y1="33.3" x2="126.9" y2="33.3"/>
	<line class="st11" x1="63" y1="38.8" x2="126.9" y2="38.8"/>
	<line class="st11" x1="63" y1="44.3" x2="126.9" y2="44.3"/>
	<g class="st22">
		<polygon class="st4" points="67.8,51.2 68.8,53.2 67.4,51.5 		"/>
	</g>
	<g class="st22">
		<polygon class="st4" points="70,50 68.8,53.2 69.5,49.9 		"/>
	</g>
	<line class="st11" x1="73.3" y1="51.9" x2="126.8" y2="51.9"/>
	<g class="st22">
		<polygon class="st4" points="67.8,57.8 68.8,59.8 67.4,58.1 		"/>
	</g>
	<g class="st22">
		<polygon class="st4" points="70,56.6 68.8,59.8 69.5,56.5 		"/>
	</g>
	<line class="st11" x1="73.3" y1="58.5" x2="126.8" y2="58.5"/>
	<g class="st22">
		<polygon class="st4" points="67.8,64.4 68.8,66.4 67.4,64.7 		"/>
	</g>
	<g class="st22">
		<polygon class="st4" points="70,63.2 68.8,66.4 69.5,63.1 		"/>
	</g>
	<line class="st11" x1="73.3" y1="65.2" x2="126.8" y2="65.2"/>
	<line class="st18" x1="16.2" y1="21.8" x2="136.4" y2="21.8"/>
	<line class="st18" x1="16.2" y1="78" x2="136.4" y2="78"/>
</g>
<g id="Layer_12" class="st5">
	<g class="st22">
		<path class="st4" d="M73.2,38.5c-4.7,2.8-7.7,6.3-8,11.8c0.8,0.4,1.5-0.2,2.2-0.3c2.7-0.3,4.7,0.7,5.8,3.5
			c1.1,2.6,0.4,4.9-1.5,6.7c-1.9,1.8-4.7,1.8-6.7,0.2c-3-2.5-4.3-8.8-2.7-13.5C64.1,42,68.3,38.4,73.2,38.5z"/>
		<path class="st4" d="M87,38.3c-0.2,1.4-1.3,1.5-1.9,2c-2.3,1.6-3.9,3.7-4.7,6.5c-0.3,1-0.8,2.4-0.4,3.3c0.5,1.1,1.7,0,2.6-0.1
			c2.4-0.1,4.9,1.9,5.5,4.6c0.6,2.7-0.7,5.4-3.1,6.6c-2.3,1.1-5,0.3-6.6-2.1C73,51.1,77.7,39.7,87,38.3z"/>
	</g>
</g>
<g id="key_visual" class="st5">
	<path class="st18" d="M95.4,15.2c-0.2,1.3-0.4,2.6-0.4,4c0,12.6,10.2,22.7,22.7,22.7c7.3,0,13.9-3.5,18-8.9"/>
	<line class="st18" x1="100.1" y1="77.8" x2="71.3" y2="20.9"/>
	<line class="st18" x1="18.7" y1="75.9" x2="44.7" y2="35.1"/>
	<rect x="14.9" y="15.2" class="st11" width="120.9" height="66.6"/>
	<rect x="26.6" y="60.5" class="st7" width="96.3" height="12.6"/>
	<polygon class="st6" points="115.2,69.7 113.6,66.8 111.9,63.9 115.2,63.9 118.6,63.9 116.9,66.8 	"/>
	<line class="st7" x1="31.6" y1="66.8" x2="88.5" y2="66.8"/>
	<line class="st18" x1="57.8" y1="55.5" x2="44.7" y2="35.1"/>
	<line class="st18" x1="71.3" y1="20.9" x2="57.8" y2="55.5"/>
</g>
<g id="Pension_simulation" class="st5">
	<path class="st11" d="M74.5,52.2v1.3c-0.1-0.2-0.2-0.4-0.2-0.6C74.3,52.7,74.4,52.5,74.5,52.2z"/>
	<path class="st11" d="M120.3,52.9v6c0,0.3-0.2,0.7-0.5,1c-2.2,2.1-11.4,3.8-22.5,3.8c-11,0-20.3-1.6-22.5-3.8
		c-0.3-0.3-0.5-0.7-0.5-1v-6c0,0.2,0.1,0.4,0.2,0.6c0,0.1,0.1,0.1,0.1,0.2c0.7,0.8,2.4,1.6,4.8,2.2c0.2,0,0.4,0.1,0.6,0.1
		c0.2,0,0.4,0.1,0.6,0.1c0,0,0,0,0,0c0.1,0,0.3,0.1,0.4,0.1c0.2,0,0.5,0.1,0.7,0.1c0.1,0,0.2,0,0.4,0.1c0.3,0,0.5,0.1,0.8,0.1
		c0.2,0,0.3,0.1,0.5,0.1c0,0,0,0,0,0c0.2,0,0.3,0,0.5,0.1c0.2,0,0.5,0.1,0.8,0.1c0,0,0.1,0,0.1,0h0c0.4,0,0.8,0.1,1.3,0.2
		c0.5,0.1,1,0.1,1.5,0.2c0.4,0,0.8,0.1,1.3,0.1c0.6,0,1.2,0.1,1.8,0.1c0,0,0.1,0,0.1,0c0.6,0,1.3,0.1,1.9,0.1c0.7,0,1.5,0.1,2.2,0.1
		c0.3,0,0.7,0,1,0c0.4,0,0.9,0,1.3,0s0.9,0,1.3,0c0.3,0,0.7,0,1,0c0.8,0,1.5,0,2.3-0.1c0.6,0,1.3-0.1,1.9-0.1c0,0,0.1,0,0.1,0
		c0.6,0,1.2-0.1,1.8-0.1c0.4,0,0.8-0.1,1.2-0.1c0.5,0,1-0.1,1.5-0.2c0.4,0,0.9-0.1,1.3-0.2h0c0,0,0.1,0,0.1,0c0.2,0,0.5-0.1,0.7-0.1
		c0.7-0.1,1.3-0.2,2-0.3c0.1,0,0.1,0,0.2,0c0.2-0.1,0.5-0.1,0.7-0.1c0.2,0,0.3-0.1,0.5-0.1c0.2,0,0.4-0.1,0.6-0.1
		c0.2,0,0.4-0.1,0.6-0.1C118.3,55.1,120.3,54,120.3,52.9z"/>
	<line class="st11" x1="120.3" y1="59.7" x2="120.3" y2="58.9"/>
	<path class="st25" d="M120.3,60.9c0,1.1-1.9,2.2-5.2,3c-1.5,0.4-3.4,0.7-5.4,1h0c-3.6,0.5-7.8,0.8-12.4,0.8
		c-7.2,0-13.6-0.7-17.8-1.8c-3.2-0.8-5.2-1.9-5.2-3c0-0.4,0.2-0.7,0.5-1c2.2,2.1,11.4,3.8,22.5,3.8c11,0,20.2-1.6,22.5-3.8
		C120.1,60.2,120.3,60.5,120.3,60.9z"/>
	<line class="st11" x1="109.7" y1="56.9" x2="109.7" y2="56.9"/>
	<line class="st11" x1="84.9" y1="56.9" x2="84.8" y2="56.9"/>
	<path class="st11" d="M120.3,60.9v6c0,0.3-0.2,0.7-0.5,1c-2.2,2.1-11.4,3.8-22.5,3.8c-11,0-20.3-1.6-22.5-3.8
		c-0.3-0.3-0.5-0.7-0.5-1v-6c0,1.1,1.9,2.2,5.2,3c4.2,1.1,10.6,1.8,17.8,1.8c4.6,0,8.8-0.3,12.4-0.8h0c2-0.3,3.9-0.6,5.4-1
		C118.3,63.1,120.3,62,120.3,60.9z"/>
	<path class="st17" d="M94.7,16.6v31.5c-10.5,0.2-18.8,1.9-20.2,4.1V41.2L94.7,16.6z"/>
	<path class="st11" d="M120.3,52.9c0,1.1-1.9,2.2-5.2,3c-0.2,0-0.4,0.1-0.6,0.1c-0.2,0-0.4,0.1-0.6,0.1c-0.2,0-0.3,0.1-0.5,0.1
		c-0.2,0-0.5,0.1-0.7,0.1c-0.1,0-0.2,0-0.2,0c-0.6,0.1-1.3,0.2-2,0.3c-0.2,0-0.5,0.1-0.7,0.1c0,0-0.1,0-0.1,0h0
		c-0.4,0-0.8,0.1-1.3,0.2c-0.5,0.1-1,0.1-1.5,0.2c-0.4,0-0.8,0.1-1.2,0.1c-0.6,0-1.2,0.1-1.8,0.1c0,0-0.1,0-0.1,0
		c-0.6,0-1.2,0.1-1.9,0.1c-0.7,0-1.5,0.1-2.3,0.1c-0.3,0-0.6,0-1,0c-0.4,0-0.9,0-1.3,0s-0.9,0-1.3,0c-0.3,0-0.7,0-1,0
		c-0.8,0-1.5,0-2.2-0.1c-0.6,0-1.3-0.1-1.9-0.1c0,0-0.1,0-0.1,0c-0.6,0-1.2-0.1-1.8-0.1c-0.4,0-0.9-0.1-1.3-0.1
		c-0.5,0-1-0.1-1.5-0.2c-0.4,0-0.9-0.1-1.3-0.2h0c0,0-0.1,0-0.1,0c-0.2,0-0.5-0.1-0.8-0.1c-0.2,0-0.3,0-0.5-0.1c0,0,0,0,0,0
		c-0.2,0-0.3,0-0.5-0.1c-0.3,0-0.6-0.1-0.8-0.1c-0.1,0-0.2,0-0.4-0.1c-0.2,0-0.5-0.1-0.7-0.1c-0.2,0-0.3-0.1-0.4-0.1c0,0,0,0,0,0
		c-0.2,0-0.4-0.1-0.6-0.1c-0.2,0-0.4-0.1-0.6-0.1c-2.4-0.6-4.1-1.4-4.8-2.2c-0.1-0.1-0.1-0.1-0.1-0.2v-1.3c1.4-2.1,9.7-3.8,20.2-4.1
		c0.8,0,1.7,0,2.6,0C110,48.1,120.3,50.3,120.3,52.9z"/>
	<line class="st11" x1="120.3" y1="67.7" x2="120.3" y2="66.9"/>
	<path class="st25" d="M120.3,68.9c0,1.1-1.9,2.2-5.2,3c-0.2,0-0.4,0.1-0.6,0.1c-0.2,0-0.4,0.1-0.6,0.1c-0.3,0.1-0.6,0.1-1,0.2
		c-0.3,0.1-0.7,0.1-1,0.2c-0.3,0.1-0.6,0.1-0.9,0.2c-0.4,0.1-0.9,0.1-1.3,0.2h0c-2.5,0.3-5.4,0.6-8.5,0.7c-0.4,0-0.9,0-1.3,0
		c-0.4,0-0.7,0-1.1,0c-0.5,0-1,0-1.6,0c-2.9,0-5.8-0.1-8.3-0.3c-0.4,0-0.9-0.1-1.3-0.1c-1-0.1-1.9-0.2-2.8-0.3h0
		c-0.3,0-0.6-0.1-0.8-0.1c-0.3,0-0.6-0.1-1-0.1c-0.9-0.2-1.6-0.3-2.4-0.5c-0.2,0-0.4-0.1-0.6-0.1c-0.2,0-0.4-0.1-0.6-0.1
		c-3.2-0.8-5.2-1.9-5.2-3c0-0.4,0.2-0.7,0.5-1c2.2,2.1,11.4,3.8,22.5,3.8c11,0,20.2-1.6,22.5-3.8C120.1,68.2,120.3,68.5,120.3,68.9z
		"/>
	<path class="st11" d="M120.3,68.9v6c0,0.3-0.2,0.7-0.5,1c-2.2,2.1-11.4,3.8-22.5,3.8c-11,0-20.3-1.6-22.5-3.8
		c-0.3-0.3-0.5-0.7-0.5-1v-6c0,1.1,1.9,2.2,5.2,3c0.2,0,0.4,0.1,0.6,0.1c0.2,0,0.4,0.1,0.6,0.1c0.8,0.2,1.5,0.3,2.4,0.5
		c0.3,0,0.6,0.1,1,0.1c0.3,0,0.6,0.1,0.8,0.1h0c0.9,0.1,1.8,0.2,2.8,0.3c0.4,0,0.8,0.1,1.3,0.1c2.6,0.2,5.4,0.3,8.3,0.3
		c0.5,0,1,0,1.6,0c0.4,0,0.7,0,1.1,0c0.4,0,0.9,0,1.3,0c3.1-0.1,5.9-0.3,8.5-0.7h0c0.5-0.1,0.9-0.1,1.3-0.2c0.3,0,0.6-0.1,0.9-0.2
		c0.4-0.1,0.7-0.1,1-0.2c0.3-0.1,0.7-0.1,1-0.2c0.2,0,0.4-0.1,0.6-0.1c0.2,0,0.4-0.1,0.6-0.1C118.3,71.1,120.3,70,120.3,68.9z"/>
	<line class="st11" x1="120.3" y1="75.7" x2="120.3" y2="74.9"/>
	<path class="st25" d="M120.3,76.9c0,1.1-1.9,2.2-5.2,3c-4.2,1.1-10.6,1.8-17.8,1.8c-7.2,0-13.6-0.7-17.8-1.8
		c-3.2-0.8-5.2-1.9-5.2-3c0-0.4,0.2-0.7,0.5-1c2.2,2.1,11.4,3.8,22.5,3.8c11,0,20.2-1.6,22.5-3.8C120.1,76.2,120.3,76.5,120.3,76.9z
		"/>
	<path class="st11" d="M120.3,76.9v6c0,2.6-10.3,4.8-23,4.8c-12.7,0-23-2.1-23-4.8v-6c0,1.1,1.9,2.2,5.2,3
		c4.2,1.1,10.6,1.8,17.8,1.8c7.2,0,13.6-0.7,17.8-1.8C118.3,79.1,120.3,78,120.3,76.9z"/>
	<line class="st11" x1="120.3" y1="83.7" x2="120.3" y2="82.9"/>
	<polygon class="st17" points="50.7,49.4 50.7,83.7 30.5,83.7 30.5,73.7 	"/>
	<polygon class="st17" points="72.7,43.4 72.7,83.7 52.5,83.7 52.5,47.2 56.3,42.6 67.7,49 	"/>
	<path class="st17" d="M74.6,53.7h-0.1v-0.2C74.5,53.6,74.6,53.6,74.6,53.7z"/>
	<polyline class="st7" points="26.9,78 30.5,73.7 50.7,49.4 52.5,47.2 56.3,42.6 	"/>
	<polyline class="st7" points="56.1,42.5 56.3,42.6 67.7,49 68.1,49.3 	"/>
	<polyline class="st7" points="67.7,49 72.7,43.4 74.5,41.2 94.7,16.6 97.3,13.5 	"/>
	<polygon class="st6" points="102,7.2 101.6,11.6 101.3,16.1 97.6,13.5 93.9,11 98,9.1 	"/>
</g>
<g id="Layer_15">
</g>
</svg>
